<svg id="Capa_1" enable-background="new 0 0 512 512" height="512" viewBox="0 0 512 512" width="512" xmlns="http://www.w3.org/2000/svg"><g><g><g><path d="m360.047 504.5h-321.232c-5.579 0-10.102-4.523-10.102-10.102v-476.796c0-5.579 4.523-10.102 10.102-10.102h321.232c22.316 0 40.406 18.091 40.406 40.407v416.187c0 22.315-18.09 40.406-40.406 40.406z" fill="#e28086"/></g><g><path d="m38.815 7.5c-5.579 0-10.102 4.523-10.102 10.102v476.797c0 5.579 4.523 10.102 10.102 10.102h40.407v-497.001z" fill="#9dc6fb"/></g><g><path d="m360.047 7.5h-22.224c22.316 0 40.406 18.091 40.406 40.407v416.187c0 22.316-18.091 40.406-40.406 40.406h22.224c22.316 0 40.406-18.091 40.406-40.406v-416.187c0-22.316-18.09-40.407-40.406-40.407z" fill="#dd636e"/></g><g><path d="m172.157 29.724h121.22v202.033h-121.22z" fill="#f9f6f9" transform="matrix(0 1 -1 0 363.506 -102.026)"/></g></g><g><path d="m476.888 476.891-13.805 27.609-13.805-27.609c-4.208-8.416-6.399-17.696-6.399-27.106v-379.655h40.406v379.655c.002 9.41-2.189 18.69-6.397 27.106z" fill="#818181"/></g><g><path d="m467.124 70.13v379.655c0 9.409-2.191 18.689-6.399 27.105l-5.723 11.446 8.081 16.163 13.805-27.609c4.208-8.416 6.399-17.696 6.399-27.105v-379.655z" fill="#595959"/></g><g><path d="m442.88 7.5h40.407v62.63h-40.407z" fill="#9dc6fb"/></g><g><path d="m467.124 7.5h16.163v62.63h-16.163z" fill="#80b4fb"/></g><g><path d="m164.075 115.006h137.382c4.142 0 7.5-3.358 7.5-7.5s-3.358-7.5-7.5-7.5h-137.382c-4.142 0-7.5 3.358-7.5 7.5s3.358 7.5 7.5 7.5z"/><path d="m164.075 161.474h137.382c4.142 0 7.5-3.358 7.5-7.5s-3.358-7.5-7.5-7.5h-137.382c-4.142 0-7.5 3.358-7.5 7.5s3.358 7.5 7.5 7.5z"/><path d="m283.274 402.045h-101.016c-4.142 0-7.5 3.358-7.5 7.5s3.358 7.5 7.5 7.5h101.016c4.142 0 7.5-3.358 7.5-7.5s-3.357-7.5-7.5-7.5z"/><path d="m283.274 434.37h-101.016c-4.142 0-7.5 3.358-7.5 7.5s3.358 7.5 7.5 7.5h101.016c4.142 0 7.5-3.358 7.5-7.5s-3.357-7.5-7.5-7.5z"/><path d="m360.047 0h-321.232c-9.706 0-17.602 7.896-17.602 17.602v119.542c0 4.142 3.358 7.5 7.5 7.5s7.5-3.358 7.5-7.5v-119.542c0-1.435 1.167-2.602 2.602-2.602h32.907v482h-32.907c-1.435 0-2.602-1.167-2.602-2.602v-322.233c0-4.142-3.358-7.5-7.5-7.5s-7.5 3.358-7.5 7.5v322.233c0 9.706 7.896 17.602 17.602 17.602h321.232c26.416 0 47.906-21.491 47.906-47.907v-59.23c0-4.142-3.358-7.5-7.5-7.5s-7.5 3.358-7.5 7.5v59.23c0 18.145-14.762 32.907-32.906 32.907h-273.325v-482h273.325c18.145 0 32.906 14.762 32.906 32.907v321.95c0 4.142 3.358 7.5 7.5 7.5s7.5-3.358 7.5-7.5v-321.95c0-26.416-21.491-47.907-47.906-47.907z"/><path d="m341.283 191.35v-121.22c0-4.142-3.358-7.5-7.5-7.5h-202.033c-4.142 0-7.5 3.358-7.5 7.5v121.22c0 4.142 3.358 7.5 7.5 7.5h202.033c4.142 0 7.5-3.358 7.5-7.5zm-15-7.5h-187.033v-106.22h187.033z"/><path d="m483.287 0h-40.407c-4.142 0-7.5 3.358-7.5 7.5v62.63 379.656c0 10.519 2.486 21.051 7.191 30.459l13.805 27.609c1.271 2.541 3.867 4.146 6.708 4.146s5.438-1.605 6.708-4.146l13.804-27.609c4.705-9.408 7.191-19.941 7.191-30.459v-288.215c0-4.142-3.358-7.5-7.5-7.5s-7.5 3.358-7.5 7.5v288.214c0 8.202-1.939 16.415-5.607 23.751l-7.096 14.192-7.097-14.192c-3.668-7.336-5.607-15.55-5.607-23.751v-372.155h25.407v48.914c0 4.142 3.358 7.5 7.5 7.5s7.5-3.358 7.5-7.5v-119.044c0-4.142-3.358-7.5-7.5-7.5zm-32.907 62.63v-47.63h25.407v47.63z"/></g></g></svg>