<svg height="512" viewBox="0 0 64 64" width="512" xmlns="http://www.w3.org/2000/svg"><g id="laptop-book-notebook-education-learn"><path d="m13 3v58h36v-56a2 2 0 0 0 -2-2z" fill="#fee9ab"/><path d="m49 5v56h-4v-56a2.006 2.006 0 0 0 -2-2h4a2.006 2.006 0 0 1 2 2z" fill="#ffde55"/><path d="m61 55v2a4 4 0 0 1 -4 4h-24a4 4 0 0 1 -4-4v-2z" fill="#898890"/><path d="m61 55v2a4 4 0 0 1 -4 4h-4a4 4 0 0 0 4-4v-2z" fill="#787680"/><path d="m59 39v16h-28v-16a4 4 0 0 1 4-4h20a4 4 0 0 1 4 4z" fill="#c6c5ca"/><path d="m59 39v16h-4v-16a4 4 0 0 0 -4-4h4a4 4 0 0 1 4 4z" fill="#acabb1"/><path d="m55 40v15h-20v-15a1 1 0 0 1 1-1h18a1 1 0 0 1 1 1z" fill="#46f8ff"/><path d="m55 40v15h-4v-15a1 1 0 0 0 -1-1h4a1 1 0 0 1 1 1z" fill="#00e7f0"/><path d="m21 7h20v18h-20z" fill="#c6c5ca"/><path d="m37 7h4v18h-4z" fill="#acabb1"/><path d="m5 8v-3a2.006 2.006 0 0 1 2-2h6v58h-6a2.006 2.006 0 0 1 -2-2z" fill="#c0ab91"/><path d="m27.293 11.293-4 4a1 1 0 0 0 0 1.414l4 4 1.414-1.414-3.293-3.293 3.293-3.293z"/><path d="m34.707 11.293-1.414 1.414 3.293 3.293-3.293 3.293 1.414 1.414 4-4a1 1 0 0 0 0-1.414z"/><path d="m24.917 15h12.166v2h-12.166z" transform="matrix(.164 -.986 .986 .164 10.13 43.955)"/><path d="m21 26h20a1 1 0 0 0 1-1v-18a1 1 0 0 0 -1-1h-20a1 1 0 0 0 -1 1v18a1 1 0 0 0 1 1zm1-18h18v16h-18z"/><path d="m18 30h2v2h-2z"/><path d="m22 30h4v2h-4z"/><path d="m18 34h8v2h-8z"/><path d="m18 38h4v2h-4z"/><path d="m24 38h2v2h-2z"/><path d="m18 54h4v2h-4z"/><path d="m24 54h2v2h-2z"/><path d="m18 42h8v2h-8z"/><path d="m18 46h8v2h-8z"/><path d="m18 50h8v2h-8z"/><path d="m61 54h-1v-15a5 5 0 0 0 -5-5h-5v-29a3.009 3.009 0 0 0 -3-3h-40a3.009 3.009 0 0 0 -3 3v2h-2v2h2v4h-2v2h2v4h-2v2h2v4h-2v2h2v4h-2v2h2v4h-2v2h2v4h-2v2h2v4h-2v2h2v4h-2v2h2v2a3.009 3.009 0 0 0 3 3h50a5 5 0 0 0 5-5v-2a1 1 0 0 0 -1-1zm-6-18a3.009 3.009 0 0 1 3 3v15h-2v-14a2.006 2.006 0 0 0 -2-2h-18a2.006 2.006 0 0 0 -2 2v14h-2v-15a3.009 3.009 0 0 1 3-3zm-1 4v14h-18v-14zm-42 20h-5a1 1 0 0 1 -1-1v-2h2v-2h-2v-4h2v-2h-2v-4h2v-2h-2v-4h2v-2h-2v-4h2v-2h-2v-4h2v-2h-2v-4h2v-2h-2v-4h2v-2h-2v-4h2v-2h-2v-2a1 1 0 0 1 1-1h5zm2 0v-56h33a1 1 0 0 1 1 1v29h-13a5 5 0 0 0 -5 5v15h-1a1 1 0 0 0 -1 1v2a4.924 4.924 0 0 0 1.03 3zm46-3a3.009 3.009 0 0 1 -3 3h-24a3.009 3.009 0 0 1 -3-3v-1h30z"/></g></svg>